<?xml version="1.0" encoding="UTF-8"?><svg id="a" xmlns="http://www.w3.org/2000/svg" viewBox="0 0 1900 750"><defs><style>.b{fill:#fff;}.c{fill:#010101;}</style></defs><path class="c" d="M1872.52,248.29c-.27-.3-.55-.6-.82-.9-.27-.3-.55-.59-.82-.89-.27-.3-.55-.6-.83-.9-.27-.3-.55-.6-.82-.9-.27-.3-.55-.6-.82-.9-.27-.3-.55-.6-.82-.9-.27-.3-.55-.6-.82-.9-.27-.3-.55-.59-.82-.89-.27-.3-.55-.6-.83-.9-.27-.3-.55-.6-.82-.9-.27-.3-.55-.6-.82-.9-.27-.3-.55-.6-.82-.9-.27-.3-.55-.59-.82-.89-.27-.3-.55-.6-.83-.9-.27-.3-.55-.6-.82-.9-.27-.3-.55-.6-.82-.9-.27-.3-.55-.6-.82-.9-.27-.3-.55-.6-.82-.9-.27-.3-.55-.59-.82-.89-.27-.3-.55-.6-.83-.9-.27-.3-.55-.6-.82-.9-.27-.3-.55-.6-.82-.9-.27-.3-.55-.6-.82-.9-.27-.3-.55-.6-.82-.9-.27-.3-.55-.59-.82-.89-.27-.3-.55-.6-.83-.9-.27-.3-.55-.6-.82-.9-.27-.3-.55-.6-.82-.9-.27-.3-.55-.6-.82-.9-.27-.3-.55-.59-.82-.89-.27-.3-.55-.6-.83-.9-.27-.3-.55-.6-.82-.9-.27-.3-.55-.6-.82-.9-.27-.3-.55-.6-.82-.9-.27-.3-.55-.6-.82-.9-.27-.3-.55-.59-.82-.89-.27-.3-.55-.6-.83-.9-.27-.3-.55-.6-.82-.9-.27-.3-.55-.6-.82-.9-.27-.3-.55-.6-.82-.9-.27-.3-.55-.59-.82-.89-.27-.3-.55-.6-.83-.9-.27-.3-.55-.6-.82-.9-.27-.3-.55-.6-.82-.9-.27-.3-.55-.6-.82-.9-.27-.3-.55-.6-.82-.9-.27-.3-.55-.59-.82-.89-.27-.3-.55-.6-.83-.9-.27-.3-.55-.6-.82-.9-.27-.3-.55-.6-.82-.9-.27-.3-.55-.6-.82-.9-.27-.3-.55-.6-.82-.9-.27-.3-.55-.59-.82-.89-.27-.3-.55-.6-.83-.9-.27-.3-.55-.6-.82-.9-.27-.3-.55-.6-.82-.9-.27-.3-.55-.6-.82-.9-.27-.3-.55-.59-.82-.89-.27-.3-.55-.6-.83-.9-.27-.31-.55-.6-.83-.9-.27-.3-.55-.59-.82-.89-.27-.3-.55-.6-.82-.9-.27-.3-.55-.6-.82-.9-.27-.3-.55-.59-.82-.89-.27-.3-.55-.6-.83-.9-.27-.3-.55-.6-.82-.9-.27-.3-.55-.6-.82-.9-.27-.3-.55-.6-.82-.9-.27-.3-.55-.6-.82-.9-.27-.3-.55-.59-.82-.89-.27-.3-.55-.6-.83-.9-.27-.3-.55-.6-.82-.9-.27-.3-.55-.6-.82-.9-.27-.3-.55-.6-.82-.9-.27-.3-.55-.59-.82-.89-.27-.3-.55-.6-.83-.9-.27-.3-.55-.6-.82-.9-.27-.3-.55-.6-.82-.9-.27-.3-.55-.6-.82-.9-.27-.3-.55-.6-.82-.9-.27-.3-.55-.59-.82-.89-.27-.3-.55-.6-.83-.9-.27-.3-.55-.6-.82-.9-.27-.3-.55-.6-.82-.9-.27-.3-.55-.6-.82-.9-.27-.3-.55-.59-.82-.89-.27-.3-.55-.6-.83-.9-.27-.3-.55-.6-.82-.9-.27-.3-.55-.6-.82-.9-.27-.3-.55-.6-.82-.9-.27-.3-.55-.6-.82-.9-.27-.3-.55-.59-.82-.89-.27-.3-.55-.6-.83-.9-.27-.3-.55-.6-.82-.9-.27-.3-.55-.6-.82-.9-.27-.3-.55-.6-.82-.9-.27-.3-.55-.6-.82-.9-.27-.3-.55-.59-.82-.89-.27-.3-.55-.6-.83-.9-.27-.3-.55-.6-.82-.9-20.4-23.08-51.13-37.38-87.28-37.38-47.83,0-93.3,25.05-121.43,62.32-.11-.13-.24-.24-.35-.37-.27-.3-.55-.6-.82-.9-.27-.3-.55-.6-.82-.9-.27-.3-.55-.59-.82-.89-.27-.3-.55-.6-.83-.9-.27-.3-.55-.6-.82-.9-.27-.3-.55-.6-.82-.9-.27-.3-.55-.6-.82-.9-.27-.3-.55-.6-.82-.9-.27-.3-.55-.59-.82-.89-.27-.3-.55-.6-.83-.9-.27-.3-.55-.6-.82-.9-.27-.3-.55-.6-.82-.9-.27-.3-.55-.6-.82-.9-.27-.3-.55-.59-.82-.89-.27-.3-.55-.6-.83-.9-.27-.3-.55-.6-.82-.9-.27-.3-.55-.6-.82-.9-.27-.3-.55-.6-.82-.9-.27-.3-.55-.6-.82-.9-.27-.3-.55-.59-.82-.89-.27-.3-.55-.6-.83-.9-.27-.3-.55-.6-.82-.9-.26-.29-.53-.58-.8-.87-20.37-25.38-52.47-41.37-90.37-41.37-14.29,0-28.51,2.19-42.44,6.52-7.94-4.26-17.15-6.52-27.05-6.52-29.07,0-56.25,19.75-66.28,46.13-.21-.23-.43-.45-.64-.68-.27-.3-.55-.59-.82-.89-.27-.3-.55-.6-.83-.9-.27-.3-.55-.6-.82-.9-.27-.3-.55-.6-.82-.9-.27-.3-.55-.6-.82-.9-.27-.3-.55-.6-.82-.9-.27-.3-.55-.59-.82-.89-.27-.3-.55-.6-.83-.9-.27-.3-.55-.6-.82-.9-20.4-23.08-51.13-37.38-87.28-37.38-47.69,0-93.05,24.9-121.2,61.99-.13-.15-.27-.28-.4-.43-.27-.3-.55-.6-.82-.9-.27-.3-.55-.59-.82-.89-.27-.3-.55-.6-.83-.9-.27-.3-.55-.6-.82-.9-.27-.3-.55-.6-.82-.9-.27-.3-.55-.6-.82-.9-.27-.3-.55-.6-.82-.9-.27-.3-.55-.59-.82-.89-.27-.3-.55-.6-.83-.9-.27-.3-.55-.6-.82-.9-.27-.3-.55-.6-.82-.9-.27-.3-.55-.6-.82-.9-.27-.3-.55-.59-.82-.89-.27-.3-.55-.6-.83-.9-.27-.3-.55-.6-.82-.9-.27-.3-.55-.6-.82-.9-.27-.3-.55-.6-.82-.9-.27-.3-.55-.6-.82-.9-.27-.3-.55-.59-.82-.89-.27-.3-.55-.6-.83-.9-.27-.3-.55-.6-.82-.9-.27-.3-.55-.6-.82-.9-.27-.3-.55-.6-.82-.9-.27-.3-.55-.6-.82-.9-.27-.3-.55-.59-.82-.89-.27-.3-.55-.6-.83-.9-.27-.3-.55-.6-.82-.9-20.4-23.08-51.13-37.38-87.28-37.38-24.79,0-48.94,6.72-70.38,18.38-.47-12.58-5.18-23.81-13.02-32.36-.27-.31-.55-.6-.82-.9-.27-.31-.55-.6-.82-.89-.27-.31-.55-.6-.82-.9-.27-.31-.55-.6-.82-.9-.27-.31-.55-.6-.82-.9-.27-.31-.55-.6-.82-.9-.27-.31-.55-.6-.82-.9-.27-.31-.55-.6-.82-.89-.27-.31-.55-.6-.82-.9-.27-.31-.55-.6-.82-.9-.27-.31-.55-.6-.82-.9-.27-.31-.55-.6-.82-.9-.27-.31-.55-.6-.82-.89-.27-.31-.55-.6-.82-.9-.27-.31-.55-.6-.82-.9-.27-.31-.55-.6-.82-.9-.27-.31-.55-.6-.82-.9-.27-.31-.55-.6-.82-.9-.27-.31-.55-.6-.82-.89-.27-.31-.55-.6-.82-.9-.27-.31-.55-.6-.82-.9-.27-.31-.55-.6-.82-.9-.27-.31-.55-.6-.82-.9-.27-.31-.55-.6-.82-.9-.27-.31-.55-.6-.82-.89-.27-.31-.55-.6-.82-.9-.27-.31-.55-.6-.82-.9-.27-.31-.55-.6-.82-.9-.27-.31-.55-.6-.82-.9-.27-.31-.55-.6-.82-.89-.27-.31-.55-.6-.82-.9-.27-.31-.55-.6-.82-.9-.27-.31-.55-.6-.82-.9-.27-.31-.55-.6-.82-.9-.27-.31-.55-.6-.82-.9-.27-.31-.55-.6-.82-.89-.27-.31-.55-.6-.82-.9-.27-.31-.55-.6-.82-.9-.27-.31-.55-.6-.82-.9-.27-.31-.55-.6-.82-.9-.27-.31-.55-.6-.82-.89-.27-.31-.55-.6-.82-.9-.27-.31-.55-.6-.82-.9-.27-.31-.55-.6-.82-.9-.27-.31-.55-.6-.82-.9-.27-.31-.55-.6-.82-.9-.27-.31-.55-.6-.82-.89-.27-.31-.55-.6-.82-.9-.27-.31-.55-.6-.82-.9-.27-.31-.55-.6-.82-.9-.27-.31-.55-.6-.82-.9-.27-.31-.55-.6-.82-.9-.27-.31-.55-.6-.82-.89-.27-.31-.55-.6-.82-.9-.27-.31-.55-.6-.82-.9-.27-.31-.55-.6-.82-.9-.27-.31-.55-.6-.82-.9-.27-.31-.55-.6-.82-.89-.27-.31-.55-.6-.82-.9-.27-.31-.55-.6-.82-.9-.27-.31-.55-.6-.82-.89-.27-.31-.55-.6-.82-.9-.27-.31-.55-.6-.82-.9-.27-.31-.55-.6-.82-.89-.27-.31-.55-.6-.82-.9-.27-.31-.55-.6-.82-.9-.27-.31-.55-.6-.82-.9-.27-.31-.55-.6-.82-.9-.27-.31-.55-.6-.82-.9-.27-.31-.55-.6-.82-.89-.27-.31-.55-.6-.82-.9-.27-.31-.55-.6-.82-.9-.27-.31-.55-.6-.82-.9-.27-.31-.55-.6-.82-.9-.27-.31-.55-.6-.82-.89-.27-.31-.55-.6-.82-.9-.27-.31-.55-.6-.82-.9-.27-.31-.55-.6-.82-.9-.27-.31-.55-.6-.82-.9-.27-.31-.55-.6-.82-.9-.27-.31-.55-.6-.82-.89-.27-.31-.55-.6-.82-.9-.27-.31-.55-.6-.82-.9-.27-.31-.55-.6-.82-.9-.27-.31-.55-.6-.82-.9-.27-.31-.55-.6-.82-.89-.27-.31-.55-.6-.82-.9-.27-.31-.55-.6-.82-.9-.27-.31-.55-.6-.82-.9-.27-.31-.55-.6-.82-.9-.27-.31-.55-.6-.82-.9-.27-.31-.55-.6-.82-.89-.27-.31-.55-.6-.82-.9-.27-.31-.55-.6-.82-.9-.27-.31-.55-.6-.82-.9-.27-.31-.55-.6-.82-.9-.27-.31-.55-.6-.82-.9-.27-.31-.55-.6-.82-.89-.27-.31-.55-.6-.82-.9-.27-.31-.55-.6-.82-.9-9.56-10.95-24.04-17.77-41.1-17.77-27.14,0-52.65,17.21-64.08,40.97-8.82-6.28-19.95-9.96-32.47-9.96-33.81,0-65.12,26.68-69.8,59.47-2.38,16.7,2.62,31.79,12.54,42.6,.27,.31,.55,.6,.82,.9,.27,.31,.55,.6,.82,.89,.26,.29,.52,.57,.79,.86-10.92,8.13-19.57,19.17-24.35,31.73-.21-.23-.44-.45-.65-.69-.27-.3-.55-.59-.82-.89-.27-.3-.55-.6-.83-.9-.27-.3-.55-.6-.82-.9-.27-.3-.55-.6-.82-.9-.27-.3-.55-.6-.82-.9-.27-.3-.55-.6-.82-.9-.27-.3-.55-.59-.82-.89-.27-.3-.55-.6-.83-.9-.27-.3-.55-.6-.82-.9-20.4-23.08-51.13-37.38-87.28-37.38-24.77,0-49.76,6.78-72.26,19.39-18.9-12.61-41.95-19.39-66.72-19.39-14.29,0-28.51,2.19-42.44,6.52-7.94-4.26-17.16-6.52-27.05-6.52-29.07,0-56.25,19.75-66.28,46.13-.21-.23-.43-.45-.64-.69-.27-.3-.55-.59-.82-.89-.27-.3-.55-.6-.83-.9-.27-.3-.55-.6-.82-.9-.27-.3-.55-.6-.82-.9-.27-.3-.55-.6-.82-.9-.27-.3-.55-.6-.82-.9-.27-.3-.55-.59-.82-.89-.27-.3-.55-.6-.83-.9-.27-.3-.55-.6-.82-.9-20.4-23.08-51.13-37.38-87.28-37.38-72.12,0-138.92,56.91-148.91,126.87L1.26,329.09c-5.05,35.35,5.38,67.36,26.22,90.39,.27,.3,.55,.6,.82,.9,.27,.3,.55,.59,.82,.89,.27,.3,.55,.6,.83,.9,.27,.3,.55,.6,.82,.9,.27,.3,.55,.6,.82,.9,.27,.3,.55,.6,.82,.9,.27,.3,.55,.6,.82,.9,.27,.3,.55,.59,.82,.89,.27,.3,.55,.6,.83,.9,.27,.3,.55,.6,.82,.9,.27,.3,.55,.6,.82,.9,.27,.3,.55,.6,.82,.9,.27,.3,.55,.6,.82,.9,.27,.3,.55,.59,.82,.89,.27,.3,.55,.6,.83,.9,.27,.3,.55,.6,.82,.9,.27,.3,.55,.6,.82,.9,.27,.3,.55,.6,.82,.9,.27,.3,.55,.59,.82,.89,.27,.3,.55,.6,.83,.9,.27,.3,.55,.6,.82,.9,.27,.3,.55,.6,.82,.9,.27,.3,.55,.6,.82,.9,.27,.3,.55,.6,.82,.9,.27,.3,.55,.59,.82,.89,.27,.3,.55,.6,.83,.9,.27,.3,.55,.6,.82,.9,.27,.3,.55,.6,.82,.9,.27,.3,.55,.6,.82,.9,.27,.3,.55,.59,.82,.89,.27,.3,.55,.6,.83,.9,.27,.3,.55,.6,.82,.9,.27,.3,.55,.6,.82,.9,.27,.3,.55,.6,.82,.9,.27,.3,.55,.6,.82,.9,.27,.3,.55,.59,.82,.89,.27,.3,.55,.6,.83,.9,.27,.3,.55,.6,.82,.9,.27,.3,.55,.6,.82,.9,.27,.31,.55,.6,.83,.9,.27,.3,.55,.59,.82,.89,.27,.3,.55,.59,.82,.89,.27,.31,.55,.6,.83,.9,.27,.3,.55,.6,.82,.9,.27,.3,.55,.6,.82,.9,.27,.3,.55,.6,.82,.9,.27,.3,.55,.59,.82,.89,.27,.31,.55,.6,.83,.9,.27,.3,.55,.6,.82,.9,.27,.3,.55,.6,.82,.9,.27,.3,.55,.6,.82,.9,.27,.3,.55,.6,.82,.9,.27,.3,.55,.59,.82,.89,.27,.31,.55,.6,.83,.9,.27,.3,.55,.6,.82,.9,.27,.3,.55,.6,.82,.9,.27,.3,.55,.6,.82,.9,.27,.3,.55,.6,.82,.9,.27,.3,.55,.59,.82,.89,.27,.31,.55,.6,.83,.9,.27,.3,.55,.6,.82,.9,.27,.3,.55,.6,.82,.9,.27,.3,.55,.6,.82,.9,.27,.3,.55,.59,.82,.89,.27,.31,.55,.6,.83,.9,.27,.3,.55,.6,.82,.9,.27,.3,.55,.6,.82,.9,.27,.3,.55,.6,.82,.9,.27,.3,.55,.6,.82,.9,.27,.3,.55,.59,.82,.89,.27,.31,.55,.6,.83,.9,.27,.3,.55,.6,.82,.9,.27,.3,.55,.6,.82,.9,.27,.3,.55,.6,.82,.9,.27,.3,.55,.59,.82,.89,.27,.31,.55,.6,.83,.9,.27,.3,.55,.6,.82,.9,.27,.3,.55,.6,.82,.9,.27,.3,.55,.6,.82,.9,.27,.3,.55,.6,.82,.9,.27,.3,.55,.59,.82,.89,.27,.31,.55,.6,.83,.9,.27,.3,.55,.6,.82,.9,.27,.3,.55,.6,.82,.9,.27,.3,.55,.6,.82,.9,.27,.3,.55,.6,.82,.9,.27,.3,.55,.59,.82,.89,.27,.31,.55,.6,.83,.9,.27,.3,.55,.6,.82,.9,.27,.3,.55,.6,.82,.9,.27,.3,.55,.6,.82,.9,.27,.3,.55,.59,.82,.89,.27,.31,.55,.6,.83,.9,.27,.3,.55,.6,.82,.9,.27,.3,.55,.6,.82,.9,.27,.3,.55,.6,.82,.9,.27,.3,.55,.6,.82,.9,.27,.3,.55,.59,.82,.89,.27,.31,.55,.6,.83,.9,.27,.3,.55,.6,.82,.9,20.4,23.08,51.13,37.38,87.28,37.38s68.86-12.9,96.81-36.33l.62-.53c.65-.58,1.72-1.53,3.02-2.71,.1,.11,.21,.2,.3,.31,.27,.31,.55,.6,.82,.9,.27,.31,.55,.6,.82,.9,.27,.31,.55,.6,.82,.9,.27,.31,.55,.6,.82,.9,.27,.31,.55,.6,.82,.89,.27,.31,.55,.6,.82,.9,.27,.31,.55,.6,.82,.9,.27,.31,.55,.6,.82,.9,.27,.31,.55,.6,.82,.9,.27,.31,.55,.6,.82,.9,.27,.31,.55,.6,.82,.89,.27,.31,.55,.6,.82,.9,.27,.31,.55,.6,.82,.9,.27,.31,.55,.6,.82,.9,.27,.31,.55,.6,.82,.9,.27,.31,.55,.6,.82,.89,.27,.31,.55,.6,.82,.9,.27,.31,.55,.6,.82,.9,.27,.31,.55,.6,.82,.9,.27,.31,.55,.6,.82,.9,.27,.31,.55,.6,.82,.9,.27,.31,.55,.6,.82,.89,.27,.31,.55,.6,.82,.9,.27,.31,.55,.6,.82,.9,9.56,10.95,24.03,17.77,41.1,17.77,30.66,0,59.2-21.97,67.75-50.52,.16,.17,.33,.33,.49,.5,.27,.31,.55,.6,.82,.9,.27,.31,.55,.6,.82,.9,.27,.31,.55,.6,.82,.9,.27,.31,.55,.6,.82,.9,.27,.31,.55,.6,.82,.9,.27,.31,.55,.6,.82,.89,.27,.31,.55,.6,.82,.9,.27,.31,.55,.6,.82,.9,.27,.31,.55,.6,.82,.9,.27,.31,.55,.6,.82,.9,.27,.31,.55,.6,.82,.89,.27,.31,.55,.6,.82,.9,.27,.31,.55,.6,.82,.9,.27,.31,.55,.6,.82,.9,.27,.31,.55,.6,.82,.9,.27,.31,.55,.6,.82,.9,.27,.31,.55,.6,.82,.89,.27,.31,.55,.6,.82,.9,.27,.31,.55,.6,.82,.9,.27,.31,.55,.6,.82,.9,.27,.31,.55,.6,.82,.9,.27,.31,.55,.6,.82,.9,.27,.31,.55,.6,.82,.89,.27,.31,.55,.6,.82,.9,.27,.31,.55,.6,.82,.9,.27,.31,.55,.6,.82,.9,.27,.31,.55,.6,.82,.9,.27,.31,.55,.6,.82,.89,.27,.31,.55,.6,.82,.9,.27,.31,.55,.6,.82,.9,.27,.31,.55,.6,.82,.9,.27,.31,.55,.6,.82,.9,.27,.31,.55,.6,.82,.9,.27,.31,.55,.6,.82,.89,.27,.31,.55,.6,.82,.9,.27,.31,.55,.6,.82,.9,9.56,10.95,24.03,17.77,41.1,17.77,30.66,0,59.2-21.97,67.75-50.52,.16,.17,.33,.33,.49,.5,.27,.31,.55,.6,.82,.9,.27,.31,.55,.6,.82,.9,.27,.31,.55,.6,.82,.9,.27,.31,.55,.6,.82,.9,.27,.31,.55,.6,.82,.9,.27,.31,.55,.6,.82,.89,.27,.31,.55,.6,.82,.9,.27,.31,.55,.6,.82,.9,.27,.31,.55,.6,.82,.9,.27,.31,.55,.6,.82,.9,.27,.31,.55,.6,.82,.89,.27,.31,.55,.6,.82,.9,.27,.31,.55,.6,.82,.9,.27,.31,.55,.6,.82,.9,.27,.31,.55,.6,.82,.9,.27,.31,.55,.6,.82,.9,.27,.31,.55,.6,.82,.89,.27,.31,.55,.6,.82,.9,.27,.31,.55,.6,.82,.9,.27,.31,.55,.6,.82,.9,.27,.31,.55,.6,.82,.9,.27,.31,.55,.6,.82,.9,.27,.31,.55,.6,.82,.89,.27,.31,.55,.6,.82,.9,.27,.31,.55,.6,.82,.9,.27,.31,.55,.6,.82,.9,.27,.31,.55,.6,.82,.9,.27,.31,.55,.6,.82,.89,.27,.31,.55,.6,.82,.9,.27,.31,.55,.6,.82,.9,.27,.31,.55,.6,.82,.9,.27,.31,.55,.6,.82,.9,.27,.31,.55,.6,.82,.9,.27,.31,.55,.6,.82,.89,.27,.31,.55,.6,.82,.9,.27,.31,.55,.6,.82,.9,9.56,10.95,24.03,17.77,41.1,17.77,18.27,0,35.77-7.84,48.78-20.18,.19,.22,.41,.41,.6,.62,.27,.31,.55,.6,.82,.9,.27,.31,.55,.6,.82,.9,9.56,10.95,24.03,17.77,41.1,17.77,18.27,0,35.77-7.84,48.78-20.18,.19,.21,.41,.4,.6,.62,.27,.31,.55,.6,.82,.9,.27,.31,.55,.6,.82,.9,9.2,10.54,22.96,17.18,39.19,17.67-.94,29.88,9.29,56.68,27.4,76.69,.27,.3,.55,.6,.82,.9,.27,.3,.55,.59,.82,.89,.27,.3,.55,.6,.83,.9,.27,.3,.55,.6,.82,.9,.27,.3,.55,.6,.82,.9,.27,.3,.55,.6,.82,.9,.27,.3,.55,.6,.82,.9,.27,.3,.55,.59,.82,.89,.27,.3,.55,.6,.83,.9,.27,.3,.55,.6,.82,.9,.27,.3,.55,.6,.82,.9,.27,.3,.55,.6,.82,.9,.27,.3,.55,.6,.82,.9,.27,.3,.55,.59,.82,.89,.27,.3,.55,.6,.83,.9,.27,.3,.55,.6,.82,.9,.27,.3,.55,.6,.82,.9,.27,.3,.55,.6,.82,.9,.27,.3,.55,.59,.82,.89,.27,.3,.55,.6,.83,.9,.27,.3,.55,.6,.82,.9,.27,.3,.55,.6,.82,.9,.27,.3,.55,.6,.82,.9,.27,.3,.55,.6,.82,.9,.27,.3,.55,.59,.82,.89,.27,.3,.55,.6,.83,.9,.27,.3,.55,.6,.82,.9,.27,.3,.55,.6,.82,.9,.27,.3,.55,.6,.82,.9,.27,.3,.55,.59,.82,.89,.27,.3,.55,.6,.83,.9,.27,.3,.55,.6,.82,.9,.27,.3,.55,.6,.82,.9,.27,.3,.55,.6,.82,.9,.27,.3,.55,.6,.82,.9,.27,.3,.55,.59,.82,.89,.27,.3,.55,.6,.83,.9,.27,.3,.55,.6,.82,.9,.27,.3,.55,.6,.82,.9,.27,.31,.55,.6,.83,.9,.27,.3,.55,.59,.82,.89,.27,.3,.55,.59,.82,.89,.27,.31,.55,.6,.83,.9,.27,.3,.55,.6,.82,.9,.27,.3,.55,.6,.82,.9,.27,.3,.55,.6,.82,.9,.27,.3,.55,.59,.82,.89,.27,.31,.55,.6,.83,.9,.27,.3,.55,.6,.82,.9,.27,.3,.55,.6,.82,.9,.27,.3,.55,.6,.82,.9,.27,.3,.55,.6,.82,.9,.27,.3,.55,.59,.82,.89,.27,.31,.55,.6,.83,.9,.27,.3,.55,.6,.82,.9,.27,.3,.55,.6,.82,.9,.27,.3,.55,.6,.82,.9,.27,.3,.55,.6,.82,.9,.27,.3,.55,.59,.82,.89,.27,.31,.55,.6,.83,.9,.27,.3,.55,.6,.82,.9,.27,.3,.55,.6,.82,.9,.27,.3,.55,.6,.82,.9,.27,.3,.55,.59,.82,.89,.27,.31,.55,.6,.83,.9,.27,.3,.55,.6,.82,.9,.27,.3,.55,.6,.82,.9,.27,.3,.55,.6,.82,.9,.27,.3,.55,.6,.82,.9,.27,.3,.55,.59,.82,.89,.27,.31,.55,.6,.83,.9,.27,.3,.55,.6,.82,.9,.27,.3,.55,.6,.82,.9,.27,.3,.55,.6,.82,.9,.27,.3,.55,.59,.82,.89,.27,.31,.55,.6,.83,.9,.27,.3,.55,.6,.82,.9,.27,.3,.55,.6,.82,.9,.27,.3,.55,.6,.82,.9,.27,.3,.55,.6,.82,.9,.27,.3,.55,.59,.82,.89,.27,.31,.55,.6,.83,.9,.27,.3,.55,.6,.82,.9,.27,.3,.55,.6,.82,.9,.27,.3,.55,.6,.82,.9,.27,.3,.55,.6,.82,.9,.27,.3,.55,.59,.82,.89,.27,.31,.55,.6,.83,.9,.27,.3,.55,.6,.82,.9,.27,.3,.55,.6,.82,.9,.27,.3,.55,.6,.82,.9,.27,.3,.55,.59,.82,.89,.27,.31,.55,.6,.83,.9,.27,.3,.55,.6,.82,.9,.27,.3,.55,.6,.82,.9,.27,.3,.55,.6,.82,.9,.27,.3,.55,.6,.82,.9,.27,.3,.55,.59,.82,.89,.27,.31,.55,.6,.83,.9,.27,.3,.55,.6,.82,.9,20.4,23.08,51.13,37.38,87.28,37.38,72.12,0,138.92-56.91,148.91-126.87l17.32-121.31s.04,.05,.06,.07c.27,.31,.55,.6,.83,.9,.27,.3,.55,.6,.82,.9,.27,.3,.55,.6,.82,.9,.27,.3,.55,.6,.82,.9,.27,.3,.55,.6,.82,.9,.27,.3,.55,.59,.82,.89,.27,.31,.55,.6,.83,.9,.27,.3,.55,.6,.82,.9,20.4,23.08,51.13,37.38,87.28,37.38s73.11-15.23,100.44-39.59c.1,.11,.22,.21,.32,.32,.27,.31,.55,.6,.82,.9,.27,.31,.55,.6,.82,.9,.27,.31,.55,.6,.82,.9,.27,.31,.55,.6,.82,.9,.27,.31,.55,.6,.82,.89,.27,.31,.55,.6,.82,.9,.27,.31,.55,.6,.82,.9,.27,.31,.55,.6,.82,.9,.27,.31,.55,.6,.82,.9,.27,.31,.55,.6,.82,.9,.27,.31,.55,.6,.82,.89,.27,.31,.55,.6,.82,.9,.27,.31,.55,.6,.82,.9,.27,.31,.55,.6,.82,.9,.27,.31,.55,.6,.82,.9,.27,.31,.55,.6,.82,.89,.27,.31,.55,.6,.82,.9,.27,.31,.55,.6,.82,.9,.27,.31,.55,.6,.82,.9,.27,.31,.55,.6,.82,.9,.27,.31,.55,.6,.82,.9,.27,.31,.55,.6,.82,.89,.27,.31,.55,.6,.82,.9,.27,.31,.55,.6,.82,.9,9.56,10.95,24.04,17.77,41.1,17.77,33.81,0,65.12-26.68,69.8-59.47l19.79-138.62c.21,.23,.44,.44,.65,.67,.27,.31,.55,.6,.82,.9,.27,.31,.55,.6,.82,.9,.27,.31,.55,.6,.82,.9,.27,.31,.55,.6,.82,.9,.27,.31,.55,.6,.82,.89,.27,.31,.55,.6,.83,.9,.27,.31,.55,.6,.82,.9,.27,.31,.55,.6,.82,.9,.27,.31,.55,.6,.82,.9,.27,.31,.55,.6,.82,.89,.27,.31,.55,.6,.83,.9,.27,.31,.55,.6,.82,.9,.27,.31,.55,.6,.82,.9,.27,.31,.55,.6,.82,.9,.27,.31,.55,.6,.82,.9,.27,.31,.55,.6,.82,.89,.27,.31,.55,.6,.82,.9,.25,.28,.5,.55,.75,.83,3.4,20.87,12.5,39.51,25.97,54.39,.27,.3,.55,.6,.82,.9,.27,.3,.55,.59,.82,.89,.27,.3,.55,.6,.83,.9,.27,.3,.55,.6,.82,.9,.27,.3,.55,.6,.82,.9,.27,.3,.55,.6,.82,.9,.27,.3,.55,.6,.82,.9,.27,.3,.55,.59,.82,.89,.27,.3,.55,.6,.83,.9,.27,.3,.55,.6,.82,.9,.27,.3,.55,.6,.82,.9,.27,.3,.55,.6,.82,.9,.27,.3,.55,.6,.82,.9,.27,.3,.55,.59,.82,.89,.27,.3,.55,.6,.83,.9,.27,.3,.55,.6,.82,.9,.27,.3,.55,.6,.82,.9,.27,.3,.55,.6,.82,.9,.27,.3,.55,.59,.82,.89,.27,.3,.55,.6,.83,.9,.27,.3,.55,.6,.82,.9,.27,.3,.55,.6,.82,.9,.27,.3,.55,.6,.82,.9,.27,.3,.55,.6,.82,.9,.27,.3,.55,.59,.82,.89,.27,.3,.55,.6,.83,.9,.27,.3,.55,.6,.82,.9,.27,.3,.55,.6,.82,.9,.27,.3,.55,.6,.82,.9,.27,.3,.55,.59,.82,.89,.27,.3,.55,.6,.83,.9,.27,.3,.55,.6,.82,.9,.27,.3,.55,.6,.82,.9,.27,.3,.55,.6,.82,.9,.27,.3,.55,.6,.82,.9,.27,.3,.55,.59,.82,.89,.27,.3,.55,.6,.83,.9,.27,.3,.55,.6,.82,.9,.27,.3,.55,.6,.82,.9,.27,.31,.55,.6,.83,.9,.27,.3,.55,.59,.82,.89,.27,.3,.55,.59,.82,.89,.27,.31,.55,.6,.83,.9,.27,.3,.55,.6,.82,.9,.27,.3,.55,.6,.82,.9,.27,.3,.55,.6,.82,.9,.27,.3,.55,.59,.82,.89,.27,.31,.55,.6,.83,.9,.27,.3,.55,.6,.82,.9,.27,.3,.55,.6,.82,.9,.27,.3,.55,.6,.82,.9,.27,.3,.55,.6,.82,.9,.27,.3,.55,.59,.82,.89,.27,.31,.55,.6,.83,.9,.27,.3,.55,.6,.82,.9,.27,.3,.55,.6,.82,.9,.27,.3,.55,.6,.82,.9,.27,.3,.55,.6,.82,.9,.27,.3,.55,.59,.82,.89,.27,.31,.55,.6,.83,.9,.27,.3,.55,.6,.82,.9,.27,.3,.55,.6,.82,.9,.27,.3,.55,.6,.82,.9,.27,.3,.55,.59,.82,.89,.27,.31,.55,.6,.83,.9,.27,.3,.55,.6,.82,.9,.27,.3,.55,.6,.82,.9,.27,.3,.55,.6,.82,.9,.27,.3,.55,.6,.82,.9,.27,.3,.55,.59,.82,.89,.27,.31,.55,.6,.83,.9,.27,.3,.55,.6,.82,.9,.27,.3,.55,.6,.82,.9,.27,.3,.55,.6,.82,.9,.27,.3,.55,.59,.82,.89,.27,.31,.55,.6,.83,.9,.27,.3,.55,.6,.82,.9,.27,.3,.55,.6,.82,.9,.27,.3,.55,.6,.82,.9,.27,.3,.55,.6,.82,.9,.27,.3,.55,.59,.82,.89,.27,.31,.55,.6,.83,.9,.27,.3,.55,.6,.82,.9,.27,.3,.55,.6,.82,.9,.27,.3,.55,.6,.82,.9,.27,.3,.55,.6,.82,.9,.27,.3,.55,.59,.82,.89,.27,.31,.55,.6,.83,.9,.27,.3,.55,.6,.82,.9,.27,.3,.55,.6,.82,.9,.27,.3,.55,.6,.82,.9,.27,.3,.55,.59,.82,.89,.27,.31,.55,.6,.83,.9,.27,.3,.55,.6,.82,.9,.27,.3,.55,.6,.82,.9,.27,.3,.55,.6,.82,.9,.27,.3,.55,.6,.82,.9,.27,.3,.55,.59,.82,.89,.27,.31,.55,.6,.83,.9,.27,.3,.55,.6,.82,.9,20.4,23.08,51.13,37.38,87.28,37.38,14.29,0,28.51-2.19,42.44-6.52,7.94,4.26,17.15,6.52,27.05,6.52,33.81,0,65.12-26.68,69.8-59.47l21.18-148.29c5.05-35.35-5.38-67.36-26.22-90.39Z"/><g><path class="b" d="M158.04,147.1c-57.56,0-110.69,45.27-118.67,101.11l-11.55,80.89c-7.97,55.84,32.23,101.11,89.79,101.11,28.43,0,55.79-11.04,77.15-28.95,0,0,9.09-8.02,13.03-12.64,4.62-5.42,7.81-11.99,8.82-19.07,2.66-18.61-10.74-33.7-29.93-33.7-13.15,0-23.58,8.63-33,17.55-5.26,4.98-17.02,10.76-26.63,10.76-19.19,0-32.4-16.44-29.74-35.05l1.93-13.48h104.23c19.19,0,36.9-15.09,39.56-33.7l4.81-33.7c7.97-55.84-32.23-101.11-89.79-101.11Zm-49.18,101.11c2.66-18.61,20.37-33.7,39.56-33.7s32.59,15.09,29.93,33.7H108.86Z"/><path class="b" d="M689.73,147.1c-19.19,0-36.9,15.09-39.56,33.7l-30.8,215.69c-2.66,18.61,10.74,33.7,29.93,33.7s36.9-15.09,39.56-33.7l30.8-215.69c2.66-18.61-10.74-33.7-29.93-33.7Z"/><ellipse class="b" cx="697.82" cy="90.48" rx="36.77" ry="31.85" transform="translate(85.36 436.94) rotate(-36.88)"/><path class="b" d="M799.18,25.77c-19.19,0-36.9,15.09-39.56,33.7l-48.13,337.02c-2.66,18.61,10.74,33.7,29.93,33.7s36.9-15.09,39.56-33.7l48.13-337.02c2.66-18.61-10.74-33.7-29.93-33.7Z"/><path class="b" d="M528.12,147.1c-26.7,0-52.44,9.75-73.17,25.77-16.15-16.02-39.11-25.77-65.81-25.77-16.09,0-31.83,3.54-46.34,9.86-5.42-6.09-13.56-9.86-23.15-9.86-19.19,0-36.9,15.09-39.56,33.7l-30.8,215.69c-2.66,18.61,10.74,33.7,29.93,33.7s36.9-15.09,39.56-33.7l21.18-148.29c2.66-18.61,20.37-33.7,39.56-33.7s32.59,15.09,29.93,33.7l-21.18,148.29c-2.66,18.61,10.74,33.7,29.93,33.7s36.9-15.09,39.56-33.7l21.18-148.29c2.66-18.61,20.37-33.7,39.56-33.7s32.59,15.09,29.93,33.7l-21.18,148.29c-2.66,18.61,10.74,33.7,29.93,33.7s36.9-15.09,39.56-33.7l21.18-148.29c7.97-55.84-32.23-101.11-89.79-101.11Z"/><path class="b" d="M1699.25,147.09c-57.56,0-110.69,45.27-118.67,101.11l-11.55,80.89c-7.97,55.84,32.23,101.11,89.79,101.11,16.09,0,31.83-3.54,46.34-9.86,5.42,6.09,13.56,9.86,23.15,9.86,19.19,0,36.9-15.09,39.56-33.7l9.63-67.4,11.55-80.89c7.97-55.84-32.23-101.11-89.79-101.11Zm8.75,181.99c-2.66,18.61-20.37,33.7-39.56,33.7s-32.59-15.09-29.93-33.7l11.55-80.89c2.66-18.61,20.37-33.7,39.56-33.7s32.59,15.09,29.93,33.7l-11.55,80.89Z"/><path class="b" d="M1006,147.09c-57.56,0-110.69,45.27-118.67,101.11l-11.55,80.89c-7.97,55.84,32.23,101.11,89.79,101.11,12.19,0,24.17-2.05,35.57-5.78l-15.46,108.23c-2.66,18.61-20.37,33.7-39.56,33.7s-32.59-15.09-29.93-33.7l5.2-36.4c2.66-18.61-10.74-33.7-29.93-33.7s-36.9,15.09-39.56,33.7l-5.2,36.4c-7.97,55.84,32.23,101.11,89.79,101.11s110.69-45.27,118.67-101.11l29.07-203.56,11.55-80.89c7.97-55.84-32.23-101.11-89.79-101.11Zm8.75,181.99c-2.66,18.61-20.37,33.7-39.56,33.7s-32.59-15.09-29.93-33.7l11.55-80.89c2.66-18.61,20.37-33.7,39.56-33.7s32.59,15.09,29.93,33.7l-11.55,80.89Z"/><path class="b" d="M1237.1,147.09c-57.56,0-110.69,45.27-118.67,101.11l-11.55,80.89c-7.97,55.84,32.23,101.11,89.79,101.11s110.69-45.27,118.67-101.11l11.55-80.89c7.97-55.84-32.23-101.11-89.79-101.11Zm8.75,181.99c-2.66,18.61-20.37,33.7-39.56,33.7s-32.59-15.09-29.93-33.7l11.55-80.89c2.66-18.61,20.37-33.7,39.56-33.7s32.59,15.09,29.93,33.7l-11.55,80.89Z"/><path class="b" d="M1558.19,246.47c6.9-55.04-33.03-99.37-89.99-99.37-16.09,0-31.83,3.54-46.34,9.86-5.42-6.09-13.56-9.86-23.15-9.86-19.19,0-36.9,15.09-39.56,33.7l-30.8,215.69c-2.66,18.61,10.74,33.7,29.93,33.7s36.9-15.09,39.56-33.7l21.18-148.29c2.66-18.61,20.37-33.7,39.56-33.7s32.59,15.09,29.93,33.7c-2.66,18.61,10.74,33.7,29.93,33.7s36.9-15.09,39.56-33.7c.08-.58,.13-1.15,.2-1.73Z"/></g></svg>